<svg width="68" height="12" viewBox="0 0 68 12" fill="none" xmlns="http://www.w3.org/2000/svg">
<g clip-path="url(#clip0_141_828)">
<path d="M35.0372 1.96909H37.8575C38.2843 1.96909 38.8156 2.70664 38.8156 3.12685C38.8156 3.61332 38.2652 4.28461 37.7652 4.28461H35.0372V8.95924C35.0372 9.03595 35.403 9.45093 35.4953 9.51893C36.5771 10.2966 38.7407 9.01154 39.57 8.21994C40.3347 7.48937 40.6727 6.42402 41.6012 5.90094C42.7579 5.25057 44.2891 5.34473 45.5817 5.30288C45.5783 2.59156 43.216 4.12769 41.8485 4.06492C40.6483 4.00912 40.3417 2.32828 41.4583 1.86971C42.9164 1.26991 45.5312 1.26293 46.8308 2.24633C48.2558 3.32562 48.1042 4.33866 48.2662 5.90268C48.4213 7.40916 49.9787 8.80231 51.32 9.32714C52.313 9.71596 55.0863 10.3628 54.7344 8.50066C54.5881 7.72476 53.2067 7.66547 52.5882 7.40916C50.3236 6.47459 49.7766 3.64122 51.7886 2.11556C53.1666 1.06939 55.6926 1.37452 57.0043 2.4329C57.8962 3.15126 58.4729 4.32471 59.5494 4.74492V0.811336C59.5494 0.431229 60.3943 -0.0099052 60.7967 0.0179926C61.2305 0.047634 61.8611 0.56723 61.8611 0.996159V4.74492C62.6102 4.59497 63.3471 4.21661 63.8418 3.62553C64.1537 3.25414 64.2773 2.70839 64.8174 2.56715C65.3574 2.42592 65.8591 2.51484 66.157 2.98911C66.9374 4.22707 64.9898 5.52781 64.2652 6.31766C65.9218 7.08834 66.8486 9.13011 66.6744 10.9068C66.589 11.7769 65.7563 12.2634 64.9707 11.8623C64.2303 11.484 64.4516 10.3925 64.3348 9.72119C64.1537 8.66282 62.8349 7.90435 61.8594 7.70906V10.9958C61.8594 11.0585 61.6469 11.4665 61.5824 11.552C60.9919 12.3279 59.6679 12.028 59.5442 10.9975C59.4693 10.3733 59.6714 7.40045 59.5041 7.14937C58.7986 6.88608 58.1471 6.60885 57.56 6.13284C56.4033 5.19303 55.7797 3.6325 54.0411 3.72142C52.9889 3.77548 52.698 4.99775 53.6544 5.41273C54.7762 5.8992 56.4503 6.24443 57.067 7.45798C58.0774 9.44919 56.2674 11.7438 54.2275 11.967C51.7991 12.2337 49.8532 11.2085 48.0311 9.74386C46.9283 12.1588 43.385 12.6801 41.3869 11.1178C41.0472 10.8528 40.8504 10.518 40.5403 10.2948C39.1693 11.2625 37.5492 12.1012 35.8176 11.9705C34.2376 11.8501 32.9432 10.9417 32.7481 9.30273C32.4433 6.73613 32.9293 3.70399 32.7202 1.08508C32.7377 0.0528648 34.0529 -0.37432 34.7149 0.392869C35.1417 0.888055 35.0354 1.35883 35.0354 1.96909H35.0372ZM45.5817 7.43183H43.5C43.2143 7.43183 42.7004 8.0142 42.6429 8.33328C42.3694 9.8415 44.3013 10.3402 45.202 9.50673C45.2682 9.4457 45.58 8.99411 45.58 8.95924V7.43183H45.5817Z" fill="#1166D2"/>
<path d="M66.369 0.0452497C67.6268 -0.209318 68.4995 1.4907 67.3115 2.28579C65.6391 3.40693 64.5242 0.418383 66.369 0.0452497Z" fill="#1166D2"/>
</g>
<path d="M5.13105 5.19535C6.29936 5.26211 7.22844 5.56809 7.9183 6.1133C8.60815 6.65851 8.95308 7.39288 8.95308 8.3164C8.95308 9.03963 8.76949 9.67942 8.40231 10.2358C8.03513 10.7921 7.50661 11.226 6.81675 11.5376C6.13802 11.8491 5.3369 12.0049 4.41338 12.0049C3.67902 12.0049 2.93909 11.8936 2.1936 11.6711C1.45923 11.4486 0.830573 11.1537 0.307617 10.7865L0.975221 9.4847C1.44254 9.85188 1.9655 10.1356 2.54409 10.3359C3.12268 10.5362 3.71239 10.6363 4.31324 10.6363C5.27014 10.6363 6.02119 10.4305 6.5664 10.0188C7.11161 9.6071 7.38421 9.05632 7.38421 8.36647C7.38421 7.67661 7.11161 7.15365 6.5664 6.7976C6.03232 6.43042 5.27014 6.24682 4.27986 6.24682H2.66092V5.22873L6.24929 1.69043H0.87508L0.85839 0.238391H8.36893V1.25649L4.43007 5.14528L5.13105 5.19535Z" fill="#1E1E1E"/>
<path d="M18.1573 2.2412C17.7902 2.00754 17.3674 1.82951 16.8889 1.70712C16.4105 1.5736 15.9431 1.50684 15.4869 1.50684C14.3631 1.50684 13.5008 1.89627 12.9 2.67515C12.3103 3.44289 12.0154 4.49437 12.0154 5.82957C12.0154 6.06323 12.021 6.24126 12.0321 6.36366C12.3103 5.72943 12.7386 5.24542 13.3172 4.91162C13.8958 4.57782 14.5912 4.41091 15.4035 4.41091C16.5718 4.41091 17.4897 4.74472 18.1573 5.41232C18.8361 6.07992 19.1754 6.98119 19.1754 8.11612C19.1754 8.90611 19.0085 9.59597 18.6747 10.1857C18.3409 10.7643 17.8681 11.2149 17.2561 11.5376C16.6441 11.8491 15.932 12.0049 15.1198 12.0049C14.1517 12.0049 13.3172 11.7824 12.6162 11.3373C11.9153 10.8922 11.3756 10.2469 10.9973 9.40125C10.6301 8.54449 10.4465 7.52083 10.4465 6.33028C10.4465 5.09521 10.6468 4.01592 11.0474 3.0924C11.4479 2.15775 12.021 1.44008 12.7665 0.939375C13.5119 0.427546 14.3854 0.171631 15.3868 0.171631C15.9431 0.171631 16.5273 0.249518 17.1393 0.405292C17.7624 0.561066 18.3131 0.766911 18.7916 1.02283L18.1573 2.2412ZM15.1198 5.69605C14.5523 5.69605 14.0572 5.81288 13.6343 6.04654C13.2115 6.26908 12.8833 6.5695 12.6496 6.94781C12.4271 7.32612 12.3214 7.73781 12.3325 8.18288C12.3214 8.57231 12.416 8.95062 12.6162 9.3178C12.8165 9.68498 13.1169 9.99097 13.5175 10.2358C13.9292 10.4805 14.4299 10.6029 15.0196 10.6029C15.8207 10.6029 16.4605 10.3804 16.939 9.93534C17.4285 9.49027 17.6733 8.8783 17.6733 8.09943C17.6733 7.35393 17.4452 6.76978 16.989 6.34696C16.5328 5.91302 15.9097 5.69605 15.1198 5.69605Z" fill="#1E1E1E"/>
<path d="M25.1585 0.171631C26.605 0.171631 27.7121 0.68346 28.4799 1.70712C29.2476 2.71965 29.6315 4.17725 29.6315 6.07992C29.6315 7.98259 29.2476 9.44576 28.4799 10.4694C27.7121 11.4931 26.605 12.0049 25.1585 12.0049C23.712 12.0049 22.5994 11.4931 21.8205 10.4694C21.0528 9.44576 20.6689 7.98259 20.6689 6.07992C20.6689 4.17725 21.0528 2.71965 21.8205 1.70712C22.5994 0.68346 23.712 0.171631 25.1585 0.171631ZM25.1585 1.45677C23.2781 1.45677 22.3379 2.99782 22.3379 6.07992C22.3379 9.16203 23.2781 10.7031 25.1585 10.7031C27.0278 10.7031 27.9625 9.16203 27.9625 6.07992C27.9625 2.99782 27.0278 1.45677 25.1585 1.45677Z" fill="#1E1E1E"/>
<defs>
<clipPath id="clip0_141_828">
<rect width="35.2293" height="12.01" fill="white" transform="translate(32.6465)"/>
</clipPath>
</defs>
</svg>
