<svg width="14" height="14" viewBox="0 0 14 14" fill="none" xmlns="http://www.w3.org/2000/svg">
<path d="M7 6.3C7.92826 6.3 8.8185 6.66875 9.47487 7.32513C10.1313 7.9815 10.5 8.87174 10.5 9.8V14H9.1V9.8C9.10003 9.26435 8.89537 8.74894 8.5279 8.35922C8.16043 7.96949 7.65792 7.73492 7.1232 7.7035L7 7.7C6.46435 7.69997 5.94894 7.90463 5.55922 8.2721C5.1695 8.63957 4.93492 9.14208 4.9035 9.6768L4.9 9.8V14H3.5V9.8C3.5 8.87174 3.86875 7.9815 4.52513 7.32513C5.1815 6.66875 6.07174 6.3 7 6.3ZM2.45 8.4C2.646 8.40047 2.835 8.4224 3.017 8.4658C2.89775 8.82222 2.82689 9.19303 2.8063 9.5683L2.8 9.8V9.8602C2.71952 9.83146 2.63584 9.81266 2.5508 9.8042L2.45 9.8C2.18909 9.8 1.93753 9.89713 1.74432 10.0725C1.55112 10.2478 1.43012 10.4888 1.4049 10.7485L1.4 10.85V14H0V10.85C0 10.2002 0.258124 9.57705 0.717588 9.11759C1.17705 8.65812 1.80022 8.4 2.45 8.4ZM11.55 8.4C12.1998 8.4 12.8229 8.65812 13.2824 9.11759C13.7419 9.57705 14 10.2002 14 10.85V14H12.6V10.85C12.6 10.5891 12.5029 10.3375 12.3275 10.1443C12.1522 9.95112 11.9112 9.83012 11.6515 9.8049L11.55 9.8C11.4268 9.80047 11.3101 9.8203 11.2 9.8595V9.8C11.2 9.3338 11.1244 8.8858 10.9844 8.4672C11.165 8.4231 11.3554 8.4 11.55 8.4ZM2.45 4.2C2.91413 4.2 3.35925 4.38437 3.68744 4.71256C4.01563 5.04075 4.2 5.48587 4.2 5.95C4.2 6.41413 4.01563 6.85925 3.68744 7.18744C3.35925 7.51563 2.91413 7.7 2.45 7.7C1.98587 7.7 1.54075 7.51563 1.21256 7.18744C0.884374 6.85925 0.7 6.41413 0.7 5.95C0.7 5.48587 0.884374 5.04075 1.21256 4.71256C1.54075 4.38437 1.98587 4.2 2.45 4.2ZM11.55 4.2C12.0141 4.2 12.4592 4.38437 12.7874 4.71256C13.1156 5.04075 13.3 5.48587 13.3 5.95C13.3 6.41413 13.1156 6.85925 12.7874 7.18744C12.4592 7.51563 12.0141 7.7 11.55 7.7C11.0859 7.7 10.6408 7.51563 10.3126 7.18744C9.98437 6.85925 9.8 6.41413 9.8 5.95C9.8 5.48587 9.98437 5.04075 10.3126 4.71256C10.6408 4.38437 11.0859 4.2 11.55 4.2ZM2.45 5.6C2.35717 5.6 2.26815 5.63687 2.20251 5.70251C2.13687 5.76815 2.1 5.85717 2.1 5.95C2.1 6.04283 2.13687 6.13185 2.20251 6.19749C2.26815 6.26313 2.35717 6.3 2.45 6.3C2.54283 6.3 2.63185 6.26313 2.69749 6.19749C2.76312 6.13185 2.8 6.04283 2.8 5.95C2.8 5.85717 2.76312 5.76815 2.69749 5.70251C2.63185 5.63687 2.54283 5.6 2.45 5.6ZM11.55 5.6C11.4572 5.6 11.3681 5.63687 11.3025 5.70251C11.2369 5.76815 11.2 5.85717 11.2 5.95C11.2 6.04283 11.2369 6.13185 11.3025 6.19749C11.3681 6.26313 11.4572 6.3 11.55 6.3C11.6428 6.3 11.7318 6.26313 11.7975 6.19749C11.8631 6.13185 11.9 6.04283 11.9 5.95C11.9 5.85717 11.8631 5.76815 11.7975 5.70251C11.7318 5.63687 11.6428 5.6 11.55 5.6ZM7 0C7.74261 0 8.4548 0.294999 8.9799 0.820101C9.505 1.3452 9.8 2.05739 9.8 2.8C9.8 3.54261 9.505 4.2548 8.9799 4.7799C8.4548 5.305 7.74261 5.6 7 5.6C6.25739 5.6 5.5452 5.305 5.0201 4.7799C4.495 4.2548 4.2 3.54261 4.2 2.8C4.2 2.05739 4.495 1.3452 5.0201 0.820101C5.5452 0.294999 6.25739 0 7 0ZM7 1.4C6.6287 1.4 6.2726 1.5475 6.01005 1.81005C5.7475 2.0726 5.6 2.4287 5.6 2.8C5.6 3.1713 5.7475 3.5274 6.01005 3.78995C6.2726 4.0525 6.6287 4.2 7 4.2C7.3713 4.2 7.7274 4.0525 7.98995 3.78995C8.2525 3.5274 8.4 3.1713 8.4 2.8C8.4 2.4287 8.2525 2.0726 7.98995 1.81005C7.7274 1.5475 7.3713 1.4 7 1.4Z" fill="#464B50"/>
</svg>
