<svg width="17" height="17" viewBox="0 0 17 17" fill="none" xmlns="http://www.w3.org/2000/svg">
<path d="M7.71557 4.98343C7.82958 4.86942 7.89362 4.7148 7.89362 4.55357C7.89362 4.39234 7.82958 4.23772 7.71557 4.12371C7.60157 4.00971 7.44694 3.94566 7.28571 3.94566C7.12449 3.94566 6.96986 4.00971 6.85586 4.12371L5.14129 5.83829L4.65921 5.39871C4.53944 5.29634 4.38455 5.24453 4.22728 5.25425C4.07001 5.26398 3.92268 5.33446 3.81642 5.45081C3.71016 5.56715 3.6533 5.72026 3.65784 5.87776C3.66239 6.03526 3.72799 6.18483 3.84079 6.29486L4.7515 7.12664C4.86689 7.2317 5.01831 7.2883 5.17432 7.28468C5.33033 7.28106 5.47896 7.21751 5.58936 7.10721L7.71557 4.98343ZM7.71557 10.1951C7.77211 10.2515 7.81697 10.3185 7.84758 10.3923C7.87819 10.4661 7.89394 10.5451 7.89394 10.625C7.89394 10.7049 7.87819 10.7839 7.84758 10.8577C7.81697 10.9315 7.77211 10.9985 7.71557 11.0549L5.59057 13.1799C5.47996 13.2903 5.33099 13.3539 5.17469 13.3573C5.01839 13.3607 4.8668 13.3036 4.7515 13.1981L3.84079 12.3663C3.72799 12.2563 3.66239 12.1067 3.65784 11.9492C3.6533 11.7917 3.71016 11.6386 3.81642 11.5222C3.92268 11.4059 4.07001 11.3354 4.22728 11.3257C4.38455 11.316 4.53944 11.3678 4.65921 11.4701L5.14129 11.9109L6.85586 10.1951C6.91226 10.1386 6.97925 10.0937 7.05302 10.0631C7.12678 10.0325 7.20585 10.0168 7.28571 10.0168C7.36557 10.0168 7.44465 10.0325 7.51841 10.0631C7.59217 10.0937 7.65917 10.1386 7.71557 10.1951ZM9.71429 10.9286C9.55326 10.9286 9.39883 10.9925 9.28497 11.1064C9.17111 11.2203 9.10714 11.3747 9.10714 11.5357C9.10714 11.6967 9.17111 11.8512 9.28497 11.965C9.39883 12.0789 9.55326 12.1429 9.71429 12.1429H12.75C12.911 12.1429 13.0655 12.0789 13.1793 11.965C13.2932 11.8512 13.3571 11.6967 13.3571 11.5357C13.3571 11.3747 13.2932 11.2203 13.1793 11.1064C13.0655 10.9925 12.911 10.9286 12.75 10.9286H9.71429ZM9.10714 5.46429C9.10714 5.30326 9.17111 5.14883 9.28497 5.03497C9.39883 4.92111 9.55326 4.85714 9.71429 4.85714H12.75C12.911 4.85714 13.0655 4.92111 13.1793 5.03497C13.2932 5.14883 13.3571 5.30326 13.3571 5.46429C13.3571 5.62531 13.2932 5.77974 13.1793 5.8936C13.0655 6.00746 12.911 6.07143 12.75 6.07143H9.71429C9.55326 6.07143 9.39883 6.00746 9.28497 5.8936C9.17111 5.77974 9.10714 5.62531 9.10714 5.46429ZM3.64286 0C2.67671 0 1.75014 0.3838 1.06697 1.06697C0.3838 1.75014 0 2.67671 0 3.64286V13.3571C0 14.3233 0.3838 15.2499 1.06697 15.933C1.75014 16.6162 2.67671 17 3.64286 17H13.3571C14.3233 17 15.2499 16.6162 15.933 15.933C16.6162 15.2499 17 14.3233 17 13.3571V3.64286C17 2.67671 16.6162 1.75014 15.933 1.06697C15.2499 0.3838 14.3233 0 13.3571 0H3.64286ZM1.21429 3.64286C1.21429 2.99876 1.47015 2.38104 1.9256 1.9256C2.38104 1.47015 2.99876 1.21429 3.64286 1.21429H13.3571C14.0012 1.21429 14.619 1.47015 15.0744 1.9256C15.5298 2.38104 15.7857 2.99876 15.7857 3.64286V13.3571C15.7857 14.0012 15.5298 14.619 15.0744 15.0744C14.619 15.5298 14.0012 15.7857 13.3571 15.7857H3.64286C2.99876 15.7857 2.38104 15.5298 1.9256 15.0744C1.47015 14.619 1.21429 14.0012 1.21429 13.3571V3.64286Z" fill="#464B50"/>
</svg>
