<svg width="11" height="13" viewBox="0 0 11 13" fill="none" xmlns="http://www.w3.org/2000/svg">
<path d="M8.9375 4.55V3.25C8.9375 2.38805 8.57534 1.5614 7.93068 0.951903C7.28602 0.34241 6.41168 0 5.5 0C4.58832 0 3.71398 0.34241 3.06932 0.951903C2.42466 1.5614 2.0625 2.38805 2.0625 3.25V4.55C1.51549 4.55 0.990886 4.75545 0.604092 5.12114C0.217299 5.48684 0 5.98283 0 6.5V11.05C0 11.5672 0.217299 12.0632 0.604092 12.4289C0.990886 12.7946 1.51549 13 2.0625 13H8.9375C9.48451 13 10.0091 12.7946 10.3959 12.4289C10.7827 12.0632 11 11.5672 11 11.05V6.5C11 5.98283 10.7827 5.48684 10.3959 5.12114C10.0091 4.75545 9.48451 4.55 8.9375 4.55ZM3.4375 3.25C3.4375 2.73283 3.6548 2.23684 4.04159 1.87114C4.42839 1.50545 4.95299 1.3 5.5 1.3C6.04701 1.3 6.57161 1.50545 6.95841 1.87114C7.3452 2.23684 7.5625 2.73283 7.5625 3.25V4.55H3.4375V3.25ZM9.625 11.05C9.625 11.2224 9.55257 11.3877 9.42364 11.5096C9.29471 11.6315 9.11984 11.7 8.9375 11.7H2.0625C1.88016 11.7 1.7053 11.6315 1.57636 11.5096C1.44743 11.3877 1.375 11.2224 1.375 11.05V6.5C1.375 6.32761 1.44743 6.16228 1.57636 6.04038C1.7053 5.91848 1.88016 5.85 2.0625 5.85H8.9375C9.11984 5.85 9.29471 5.91848 9.42364 6.04038C9.55257 6.16228 9.625 6.32761 9.625 6.5V11.05Z" fill="#464B50"/>
</svg>
