<svg width="17" height="19" viewBox="0 0 17 19" fill="none" xmlns="http://www.w3.org/2000/svg">
<path d="M0 19V3.45455C0 2.97955 0.1666 2.57306 0.4998 2.23509C0.833 1.89712 1.23307 1.72785 1.7 1.72727H10.285C10.2283 2.01515 10.2 2.30303 10.2 2.59091C10.2 2.87879 10.2283 3.16667 10.285 3.45455H1.7V14.7898L2.6775 13.8182H15.3V6.82273C15.6258 6.75076 15.9304 6.65374 16.2138 6.53168C16.4971 6.40962 16.7592 6.24755 17 6.04545V13.8182C17 14.2932 16.8337 14.7 16.5011 15.0385C16.1684 15.377 15.7681 15.546 15.3 15.5455H3.4L0 19ZM14.45 5.18182C13.7417 5.18182 13.1396 4.92992 12.6438 4.42614C12.1479 3.92235 11.9 3.31061 11.9 2.59091C11.9 1.87121 12.1479 1.25947 12.6438 0.755682C13.1396 0.251894 13.7417 0 14.45 0C15.1583 0 15.7604 0.251894 16.2563 0.755682C16.7521 1.25947 17 1.87121 17 2.59091C17 3.31061 16.7521 3.92235 16.2563 4.42614C15.7604 4.92992 15.1583 5.18182 14.45 5.18182Z" fill="#464B50"/>
</svg>
